# xmcd
#
# Track frame offsets: 
#        150
#        18673
#        33497
#        59850
#        73995
#        90756
#        123806
#        144935
#        161716
#        179230
#        206438
#        225455
#        245517
#        263413
#
# Disc length: 3931 seconds
#
# Revision: 0
# Processed by: cddbd v1.5.2PL0 Copyright (c) Steve Scherf et al.
# Submitted via: ExactAudioCopyFreeDBPlugin 1.0
#
DISCID=c30f590e
DTITLE=Joe Merrick - New Bad Habits
DYEAR=1900
DGENRE=Country
TTITLE0=Quarter Horse Rider
TTITLE1=Crime and Ranchin'
TTITLE2=Forever
TTITLE3=Chasing The Sundown
TTITLE4=Turquoise Eyes
TTITLE5=La Viborron
TTITLE6=What Makes A Cowboy
TTITLE7=Eat Too Much
TTITLE8=The Wonder of His Love
TTITLE9=The Voice
TTITLE10=Don't Give Up
TTITLE11=Old Paint
TTITLE12=Never Enough
TTITLE13=Jake's Revenge
EXTD=
EXTT0=
EXTT1=
EXTT2=
EXTT3=
EXTT4=
EXTT5=
EXTT6=
EXTT7=
EXTT8=
EXTT9=
EXTT10=
EXTT11=
EXTT12=
EXTT13=
PLAYORDER=
